<?xml version="1.0" encoding="UTF-8" standalone="no"?>
<svg xmlns="http://www.w3.org/2000/svg" width="512" height="512" viewBox="0 0 512 512">
  <path d="M256 56C141 56 48 132 48 226c0 53 30 100 78 132l-16 70c-2 9 8 16 16 11l78-46c17 3 35 5 52 5 115 0 208-76 208-170S371 56 256 56zm0 36c96 0 172 60 172 134S352 360 256 360c-17 0-34-2-50-6a18 18 0 0 0-13 2l-49 29 10-43a18 18 0 0 0-8-19c-44-28-72-69-72-115 0-74 76-134 172-134z"/>
  <path d="M170 286l60-58 38 30 70-78 26 22-94 104-40-32-52 50z"/>
</svg>
